<svg xmlns="http://www.w3.org/2000/svg" width="42" height="47"><path data-name="Alchemists Simplified Logo" d="M39.46 21.2l1.855.168.685-7.133-1.092-.1-.724-.066-.036-.295c-.137-1.13-.3-2.157-.476-3.064h.012a33.539 33.539 0 0 0-1.067-4.3l-.176-.513L20.988 0l-11.8 3.993-1.115.377-4.49 1.519-.165.476L3.4 6.4l-.008.025-.008.024-.005.016a34.327 34.327 0 0 0-1.058 4.241 45.76 45.76 0 0 0-.477 3.064l-.036.295-.724.066-1.092.1.688 7.134 1.86-.165.005.208.006.42-.144.108a6.843 6.843 0 0 0-1.315 1.528 3.1 3.1 0 0 0-.194 1.372v13.495l2.891-.846c.395-.116.617-.2.817-.278.079-.03.162-.062.274-.1l.3-.1.652-.212c.377-.122.565-.182.956-.3l.762-.238.155.2a36.924 36.924 0 0 0 12.786 10.289L21 47l.506-.252a36.925 36.925 0 0 0 12.786-10.295l.155-.2.759.237c.394.12.583.18.96.3l.659.21.3.1c.112.038.195.071.279.1.195.075.418.16.812.276l2.891.846V24.837a3.1 3.1 0 0 0-.194-1.372 6.824 6.824 0 0 0-1.315-1.528l-.144-.108.006-.42zm-14.59 7.49l-3.955-2.29-3.956 2.29.948-4.483-3.392-3.067 4.541-.481 1.859-4.187 1.858 4.187 4.542.481-3.392 3.068z" fill="#fff" fill-rule="evenodd"/></svg>